<svg xmlns="http://www.w3.org/2000/svg" width="80" height="80" viewBox="0 0 80 80" role="img" aria-labelledby="title">
  <title id="title">Georgia stamp</title>
  <defs>
    <filter id="rough-georgia">
      <feTurbulence type="fractalNoise" baseFrequency="0.9" numOctaves="2" seed="209" result="noise"/>
      <feDisplacementMap in="SourceGraphic" in2="noise" scale="0.65"/>
    </filter>
    <style>
      .ink{fill:none;stroke:#174d39;stroke-linecap:round;stroke-linejoin:round}
      .fill{fill:#174d39}
      .text{fill:#174d39;font-family:Inter,Arial,sans-serif;font-size:5.6px;font-weight:900;letter-spacing:.7px}
      .abbr{fill:#174d39;font-family:Inter,Arial,sans-serif;font-size:8px;font-weight:950;letter-spacing:1px}
      .mini{fill:#174d39;font-family:Inter,Arial,sans-serif;font-size:8px;font-weight:950;letter-spacing:0}
    </style>
  </defs>
  <g filter="url(#rough-georgia)" opacity=".94">
    <circle class="ink" cx="40" cy="40" r="35" stroke-width="3.2"/>
    <circle class="ink" cx="40" cy="40" r="29" stroke-width="1.5" stroke-dasharray="4 3"/>
    <text class="text" x="40" y="17" text-anchor="middle">GEORGIA</text>
    <g>
    <path class="ink" d="M40 32c6-7 18-1 17 10-1 12-15 17-17 17s-16-5-17-17c-1-11 11-17 17-10z" stroke-width="2.4"/>
    <path class="ink" d="M40 32c-2-5-1-9 3-13M43 22c5-3 11-3 15 0-4 5-10 6-15 0z" stroke-width="2"/></g>
    <text class="abbr" x="40" y="68" text-anchor="middle">GA - PEACH</text>
    <circle class="fill" cx="19" cy="40" r=".9" opacity=".32"/>
    <circle class="fill" cx="57" cy="42" r=".8" opacity=".3"/>
  </g>
</svg>
