<svg xmlns="http://www.w3.org/2000/svg" width="80" height="80" viewBox="0 0 80 80" role="img" aria-labelledby="title">
  <title id="title">Kentucky stamp</title>
  <defs>
    <filter id="rough-kentucky">
      <feTurbulence type="fractalNoise" baseFrequency="0.9" numOctaves="2" seed="216" result="noise"/>
      <feDisplacementMap in="SourceGraphic" in2="noise" scale="0.65"/>
    </filter>
    <style>
      .ink{fill:none;stroke:#1d3142;stroke-linecap:round;stroke-linejoin:round}
      .fill{fill:#1d3142}
      .text{fill:#1d3142;font-family:Inter,Arial,sans-serif;font-size:5.6px;font-weight:900;letter-spacing:.7px}
      .abbr{fill:#1d3142;font-family:Inter,Arial,sans-serif;font-size:8px;font-weight:950;letter-spacing:1px}
      .mini{fill:#1d3142;font-family:Inter,Arial,sans-serif;font-size:8px;font-weight:950;letter-spacing:0}
    </style>
  </defs>
  <g filter="url(#rough-kentucky)" opacity=".94">
    <circle class="ink" cx="40" cy="40" r="35" stroke-width="3.2"/>
    <circle class="ink" cx="40" cy="40" r="29" stroke-width="1.5" stroke-dasharray="3 3"/>
    <text class="text" x="40" y="17" text-anchor="middle">KENTUCKY</text>
    <g>
    <path class="ink" d="M27 55c3-7 2-16 8-20 3-2 4-6 3-10 7 3 13 8 15 17l5 3-5 5h-8l-2 5" stroke-width="2.5"/>
    <path class="ink" d="M33 38c-5 2-8 6-9 12M42 31l8-7M44 40h2" stroke-width="2"/></g>
    <text class="abbr" x="40" y="68" text-anchor="middle">KY - HORSE</text>
    <circle class="fill" cx="18" cy="47" r=".9" opacity=".32"/>
    <circle class="fill" cx="60" cy="38" r=".8" opacity=".3"/>
  </g>
</svg>
