<svg xmlns="http://www.w3.org/2000/svg" width="80" height="80" viewBox="0 0 80 80" role="img" aria-labelledby="title">
  <title id="title">Michigan stamp</title>
  <defs>
    <filter id="rough-michigan">
      <feTurbulence type="fractalNoise" baseFrequency="0.9" numOctaves="2" seed="221" result="noise"/>
      <feDisplacementMap in="SourceGraphic" in2="noise" scale="0.65"/>
    </filter>
    <style>
      .ink{fill:none;stroke:#1d3142;stroke-linecap:round;stroke-linejoin:round}
      .fill{fill:#1d3142}
      .text{fill:#1d3142;font-family:Inter,Arial,sans-serif;font-size:5.6px;font-weight:900;letter-spacing:.7px}
      .abbr{fill:#1d3142;font-family:Inter,Arial,sans-serif;font-size:8px;font-weight:950;letter-spacing:1px}
      .mini{fill:#1d3142;font-family:Inter,Arial,sans-serif;font-size:8px;font-weight:950;letter-spacing:0}
    </style>
  </defs>
  <g filter="url(#rough-michigan)" opacity=".94">
    <circle class="ink" cx="40" cy="40" r="35" stroke-width="3.2"/>
    <circle class="ink" cx="40" cy="40" r="29" stroke-width="1.5" stroke-dasharray="4 3"/>
    <text class="text" x="40" y="17" text-anchor="middle">MICHIGAN</text>
    <g>
    <path class="ink" d="M36 21c10 5 15 14 13 27-1 7-6 11-13 10-8-1-12-7-10-15l-4-5c-2-3 2-7 5-4l4 4c0-6 1-12 5-17z" stroke-width="2.5"/>
    <path class="ink" d="M34 29c4 6 6 14 5 24M27 39c3 4 6 6 10 5" stroke-width="1.7"/></g>
    <text class="abbr" x="40" y="68" text-anchor="middle">MI - MITTEN</text>
    <circle class="fill" cx="19" cy="43" r=".9" opacity=".32"/>
    <circle class="fill" cx="60" cy="43" r=".8" opacity=".3"/>
  </g>
</svg>
