<svg xmlns="http://www.w3.org/2000/svg" width="80" height="80" viewBox="0 0 80 80" role="img" aria-labelledby="title">
  <title id="title">New York stamp</title>
  <defs>
    <filter id="rough-new-york">
      <feTurbulence type="fractalNoise" baseFrequency="0.9" numOctaves="2" seed="231" result="noise"/>
      <feDisplacementMap in="SourceGraphic" in2="noise" scale="0.65"/>
    </filter>
    <style>
      .ink{fill:none;stroke:#1d3142;stroke-linecap:round;stroke-linejoin:round}
      .fill{fill:#1d3142}
      .text{fill:#1d3142;font-family:Inter,Arial,sans-serif;font-size:5.6px;font-weight:900;letter-spacing:.7px}
      .abbr{fill:#1d3142;font-family:Inter,Arial,sans-serif;font-size:8px;font-weight:950;letter-spacing:1px}
      .mini{fill:#1d3142;font-family:Inter,Arial,sans-serif;font-size:8px;font-weight:950;letter-spacing:0}
    </style>
  </defs>
  <g filter="url(#rough-new-york)" opacity=".94">
    <circle class="ink" cx="40" cy="40" r="35" stroke-width="3.2"/>
    <circle class="ink" cx="40" cy="40" r="29" stroke-width="1.5" stroke-dasharray="4 3"/>
    <text class="text" x="40" y="17" text-anchor="middle">NEW YORK</text>
    <g>
    <path class="ink" d="M40 32c5-5 16-2 16 9 0 10-8 17-14 17-1 0-3-1-4-1s-3 1-4 1c-6 0-14-7-14-17 0-11 11-14 16-9" stroke-width="2.4"/>
    <path class="ink" d="M40 32c-3-6-1-10 4-14M43 23c5-4 11-4 15-1-4 5-10 6-15 1z" stroke-width="2"/></g>
    <text class="abbr" x="40" y="68" text-anchor="middle">NY - APPLE</text>
    <circle class="fill" cx="21" cy="44" r=".9" opacity=".32"/>
    <circle class="fill" cx="60" cy="42" r=".8" opacity=".3"/>
  </g>
</svg>
