<svg xmlns="http://www.w3.org/2000/svg" width="1254" height="1254" viewBox="0 0 1254 1254">
  <rect width="100%" height="100%" fill="#000000"/>
  <path d="M 927 1086 L 927 1091 L 935 1091 L 936 1092 L 936 1114 L 942 1114 L 942 1092 L 943 1091 L 951 1091 L 951 1085 L 931 1085 L 930 1086 Z" fill="#905010" fill-rule="evenodd"/>
  <path d="M 896 1085 L 895 1086 L 895 1114 L 896 1115 L 901 1115 L 902 1114 L 902 1105 L 903 1104 L 906 1104 L 908 1106 L 912 1114 L 914 1114 L 915 1115 L 918 1114 L 918 1112 L 916 1110 L 913 1104 L 913 1103 L 915 1102 L 918 1098 L 918 1091 L 917 1089 L 915 1087 L 913 1086 L 910 1086 L 909 1085 Z M 901 1098 L 901 1095 L 903 1091 L 910 1091 L 912 1094 L 912 1096 L 909 1099 L 902 1099 Z" fill="#905010" fill-rule="evenodd"/>
  <path d="M 867 1085 L 863 1087 L 859 1091 L 858 1095 L 857 1096 L 857 1104 L 858 1105 L 859 1109 L 864 1114 L 866 1114 L 867 1115 L 875 1115 L 879 1113 L 883 1109 L 884 1107 L 884 1104 L 885 1103 L 885 1097 L 884 1096 L 883 1091 L 879 1087 L 875 1086 L 874 1085 Z M 871 1090 L 874 1091 L 878 1096 L 878 1105 L 875 1109 L 873 1109 L 872 1110 L 870 1110 L 866 1108 L 863 1102 L 863 1098 L 864 1097 L 865 1093 Z" fill="#905010" fill-rule="evenodd"/>
  <path d="M 843 1086 L 841 1086 L 840 1085 L 826 1085 L 826 1093 L 825 1094 L 825 1102 L 826 1103 L 826 1114 L 828 1115 L 831 1115 L 832 1114 L 832 1105 L 833 1104 L 842 1104 L 847 1100 L 848 1098 L 848 1092 L 846 1088 L 845 1088 Z M 832 1092 L 833 1091 L 839 1091 L 842 1094 L 841 1098 L 838 1100 L 833 1100 L 832 1099 Z" fill="#905010" fill-rule="evenodd"/>
  <path d="M 800 1085 L 794 1088 L 792 1092 L 792 1096 L 796 1101 L 798 1101 L 802 1103 L 805 1103 L 807 1104 L 809 1106 L 809 1107 L 806 1110 L 801 1110 L 799 1109 L 797 1107 L 797 1106 L 793 1106 L 792 1107 L 792 1110 L 796 1114 L 798 1114 L 799 1115 L 807 1115 L 813 1112 L 815 1108 L 815 1104 L 811 1099 L 807 1098 L 806 1097 L 802 1097 L 799 1095 L 799 1092 L 802 1090 L 805 1090 L 807 1091 L 809 1094 L 810 1094 L 811 1093 L 814 1093 L 814 1091 L 813 1089 L 808 1085 Z" fill="#905010" fill-rule="evenodd"/>
  <path d="M 766 1085 L 762 1088 L 761 1088 L 759 1092 L 759 1096 L 763 1101 L 769 1102 L 770 1103 L 773 1103 L 776 1106 L 776 1107 L 773 1110 L 768 1110 L 766 1109 L 764 1107 L 764 1106 L 759 1106 L 759 1110 L 763 1114 L 766 1114 L 767 1115 L 775 1115 L 776 1114 L 778 1114 L 782 1109 L 782 1103 L 781 1101 L 776 1098 L 767 1096 L 766 1095 L 766 1092 L 769 1090 L 772 1090 L 774 1091 L 776 1093 L 776 1094 L 777 1094 L 778 1093 L 781 1093 L 781 1090 L 777 1086 L 775 1086 L 774 1085 Z" fill="#905010" fill-rule="evenodd"/>
  <path d="M 734 1085 L 732 1087 L 732 1089 L 731 1090 L 730 1095 L 728 1098 L 728 1100 L 727 1101 L 727 1103 L 726 1104 L 726 1106 L 725 1107 L 725 1109 L 724 1110 L 723 1114 L 724 1115 L 728 1115 L 730 1113 L 731 1109 L 732 1108 L 741 1108 L 743 1111 L 744 1115 L 750 1115 L 750 1112 L 749 1111 L 749 1109 L 748 1108 L 746 1100 L 744 1097 L 744 1095 L 743 1094 L 741 1086 L 740 1085 Z M 736 1094 L 737 1094 L 739 1097 L 739 1100 L 740 1101 L 739 1103 L 735 1103 L 734 1102 L 734 1099 L 735 1098 L 735 1095 Z" fill="#905010" fill-rule="evenodd"/>
  <path d="M 710 1086 L 707 1086 L 706 1085 L 694 1085 L 693 1086 L 693 1114 L 694 1115 L 699 1115 L 699 1106 L 701 1104 L 711 1104 L 715 1101 L 716 1099 L 716 1092 L 715 1090 Z M 700 1092 L 701 1091 L 707 1091 L 709 1093 L 710 1096 L 707 1099 L 701 1100 L 700 1099 Z" fill="#905010" fill-rule="evenodd"/>
  <path d="M 665 1086 L 660 1086 L 659 1085 L 645 1085 L 645 1115 L 650 1115 L 651 1114 L 651 1104 L 652 1103 L 663 1103 L 663 1098 L 652 1098 L 651 1097 L 651 1092 L 652 1091 L 664 1091 L 665 1090 Z" fill="#905010" fill-rule="evenodd"/>
  <path d="M 615 1085 L 614 1086 L 614 1115 L 634 1115 L 634 1109 L 621 1109 L 620 1108 L 620 1085 Z" fill="#905010" fill-rule="evenodd"/>
  <path d="M 586 1085 L 585 1086 L 581 1087 L 578 1090 L 576 1094 L 575 1102 L 576 1103 L 576 1106 L 578 1110 L 581 1113 L 585 1114 L 586 1115 L 593 1115 L 599 1112 L 602 1108 L 602 1106 L 603 1105 L 603 1095 L 600 1089 L 596 1086 L 594 1086 L 593 1085 Z M 588 1090 L 591 1090 L 593 1091 L 597 1096 L 597 1104 L 596 1106 L 591 1110 L 588 1110 L 586 1109 L 582 1105 L 582 1096 L 583 1094 Z" fill="#905010" fill-rule="evenodd"/>
  <path d="M 545 1087 L 543 1089 L 542 1089 L 540 1093 L 540 1095 L 539 1096 L 539 1105 L 540 1106 L 541 1110 L 544 1113 L 548 1114 L 549 1115 L 556 1115 L 557 1114 L 560 1114 L 565 1110 L 565 1099 L 553 1099 L 553 1103 L 558 1103 L 560 1105 L 560 1106 L 557 1109 L 555 1110 L 552 1110 L 551 1109 L 549 1109 L 547 1107 L 545 1103 L 545 1098 L 546 1097 L 547 1093 L 552 1090 L 556 1091 L 559 1094 L 565 1094 L 564 1090 L 561 1087 L 557 1086 L 556 1085 L 550 1085 L 549 1086 Z" fill="#905010" fill-rule="evenodd"/>
  <path d="M 489 1085 L 489 1115 L 494 1115 L 495 1114 L 495 1105 L 496 1104 L 500 1104 L 501 1105 L 506 1115 L 512 1115 L 512 1113 L 507 1105 L 507 1103 L 510 1101 L 511 1097 L 512 1096 L 511 1090 L 508 1087 L 506 1086 L 503 1086 L 502 1085 Z M 495 1092 L 496 1091 L 503 1091 L 505 1093 L 505 1097 L 503 1099 L 496 1099 L 495 1098 Z" fill="#905010" fill-rule="evenodd"/>
  <path d="M 460 1085 L 456 1087 L 452 1091 L 451 1093 L 451 1096 L 450 1097 L 450 1104 L 451 1105 L 452 1109 L 457 1114 L 459 1114 L 460 1115 L 467 1115 L 468 1114 L 472 1113 L 476 1109 L 477 1105 L 478 1104 L 478 1097 L 477 1096 L 477 1093 L 476 1091 L 472 1087 L 468 1085 Z M 463 1090 L 467 1091 L 471 1095 L 471 1105 L 470 1107 L 466 1110 L 462 1110 L 460 1108 L 459 1108 L 456 1102 L 456 1098 L 457 1097 L 458 1093 Z" fill="#905010" fill-rule="evenodd"/>
  <path d="M 434 1085 L 433 1086 L 433 1114 L 434 1115 L 437 1115 L 439 1114 L 439 1086 L 438 1085 Z" fill="#905010" fill-rule="evenodd"/>
  <path d="M 397 1085 L 397 1115 L 402 1115 L 402 1113 L 403 1112 L 403 1109 L 402 1108 L 402 1098 L 403 1097 L 405 1098 L 406 1101 L 408 1103 L 410 1108 L 412 1110 L 414 1114 L 416 1114 L 417 1115 L 421 1115 L 421 1086 L 415 1086 L 415 1100 L 413 1101 L 410 1097 L 409 1094 L 407 1092 L 404 1086 L 403 1085 Z" fill="#905010" fill-rule="evenodd"/>
  <path d="M 361 1085 L 361 1108 L 363 1112 L 368 1115 L 376 1115 L 377 1114 L 381 1113 L 383 1111 L 384 1107 L 385 1106 L 385 1086 L 379 1086 L 379 1105 L 375 1110 L 371 1110 L 369 1109 L 367 1106 L 367 1086 L 366 1085 Z" fill="#905010" fill-rule="evenodd"/>
  <path d="M 348 1085 L 346 1086 L 343 1086 L 343 1106 L 342 1108 L 340 1110 L 337 1110 L 335 1106 L 330 1107 L 330 1111 L 335 1115 L 342 1115 L 343 1114 L 345 1114 L 348 1110 L 348 1108 L 349 1107 L 349 1086 Z" fill="#905010" fill-rule="evenodd"/>
  <path d="M 915 983 L 915 994 L 916 995 L 919 995 L 921 997 L 923 1002 L 925 1004 L 926 1007 L 931 1014 L 935 1023 L 938 1027 L 938 1042 L 937 1043 L 932 1043 L 932 1054 L 962 1054 L 962 1043 L 957 1043 L 956 1042 L 956 1026 L 958 1024 L 962 1015 L 964 1013 L 972 997 L 974 995 L 978 995 L 979 994 L 979 983 L 954 983 L 954 995 L 957 995 L 958 997 L 950 1012 L 948 1012 L 947 1011 L 941 999 L 941 996 L 942 995 L 944 995 L 944 983 Z" fill="#905010" fill-rule="evenodd"/>
  <path d="M 764 983 L 764 990 L 763 991 L 763 993 L 764 995 L 768 995 L 769 996 L 769 1015 L 768 1016 L 768 1021 L 769 1022 L 769 1042 L 768 1043 L 764 1043 L 763 1045 L 763 1053 L 764 1054 L 802 1054 L 803 1053 L 808 1053 L 814 1050 L 819 1045 L 821 1041 L 821 1029 L 819 1025 L 814 1020 L 812 1019 L 809 1019 L 808 1017 L 814 1014 L 816 1012 L 818 1008 L 818 1005 L 819 1004 L 819 998 L 818 997 L 818 995 L 816 991 L 812 987 L 808 985 L 806 985 L 805 984 L 802 984 L 801 983 Z M 788 995 L 796 995 L 801 999 L 802 1001 L 802 1007 L 798 1012 L 796 1012 L 795 1013 L 788 1013 L 787 1012 L 787 996 Z M 788 1024 L 798 1024 L 803 1028 L 803 1030 L 804 1031 L 804 1035 L 803 1036 L 803 1038 L 799 1042 L 797 1042 L 796 1043 L 788 1043 L 787 1042 L 787 1025 Z" fill="#905010" fill-rule="evenodd"/>
  <path d="M 651 983 L 651 993 L 652 995 L 656 995 L 657 996 L 657 999 L 658 1000 L 658 1003 L 659 1004 L 660 1014 L 661 1015 L 661 1019 L 662 1020 L 662 1024 L 663 1025 L 663 1029 L 664 1030 L 664 1034 L 665 1035 L 665 1039 L 666 1040 L 667 1048 L 668 1049 L 668 1052 L 669 1054 L 689 1054 L 690 1052 L 691 1044 L 692 1043 L 692 1038 L 693 1037 L 694 1028 L 695 1027 L 695 1024 L 696 1023 L 697 1011 L 698 1010 L 700 1011 L 700 1015 L 701 1016 L 701 1022 L 702 1023 L 702 1027 L 703 1028 L 703 1033 L 704 1034 L 704 1039 L 705 1040 L 705 1044 L 706 1045 L 707 1054 L 728 1054 L 729 1053 L 729 1049 L 730 1048 L 730 1045 L 731 1044 L 731 1041 L 732 1040 L 732 1036 L 733 1035 L 733 1031 L 734 1030 L 735 1022 L 736 1021 L 736 1018 L 737 1017 L 737 1013 L 738 1012 L 738 1008 L 739 1007 L 739 1004 L 740 1003 L 740 999 L 742 995 L 746 995 L 746 992 L 747 991 L 747 984 L 746 983 L 721 983 L 721 995 L 725 995 L 726 996 L 726 1001 L 725 1002 L 725 1007 L 724 1008 L 723 1019 L 722 1020 L 721 1030 L 720 1031 L 718 1030 L 718 1027 L 717 1026 L 717 1022 L 716 1021 L 716 1015 L 715 1014 L 715 1011 L 714 1010 L 714 1006 L 713 1005 L 713 1001 L 712 1000 L 712 994 L 711 993 L 711 990 L 710 989 L 710 985 L 709 983 L 692 983 L 691 991 L 690 992 L 690 996 L 689 997 L 689 1001 L 688 1002 L 688 1006 L 687 1007 L 687 1011 L 686 1012 L 686 1017 L 685 1018 L 684 1027 L 682 1031 L 680 1030 L 680 1024 L 679 1023 L 679 1018 L 678 1017 L 678 1012 L 677 1011 L 677 1006 L 676 1005 L 676 1000 L 675 999 L 675 996 L 676 995 L 680 995 L 681 994 L 681 983 Z" fill="#905010" fill-rule="evenodd"/>
  <path d="M 380 983 L 379 984 L 379 994 L 380 995 L 384 995 L 385 996 L 386 999 L 398 1016 L 399 1020 L 394 1027 L 393 1030 L 387 1038 L 387 1039 L 383 1043 L 380 1043 L 379 1044 L 379 1054 L 405 1054 L 405 1043 L 401 1043 L 400 1041 L 403 1037 L 404 1034 L 408 1029 L 409 1029 L 411 1031 L 411 1032 L 413 1034 L 417 1041 L 416 1043 L 413 1043 L 413 1054 L 443 1054 L 443 1043 L 440 1043 L 437 1040 L 437 1039 L 423 1019 L 424 1015 L 426 1013 L 426 1012 L 428 1010 L 428 1009 L 430 1007 L 430 1006 L 432 1004 L 436 997 L 438 995 L 442 995 L 443 994 L 443 983 L 417 983 L 417 994 L 418 995 L 420 995 L 421 996 L 421 998 L 414 1008 L 412 1007 L 411 1004 L 406 997 L 407 995 L 409 995 L 409 983 Z" fill="#905010" fill-rule="evenodd"/>
  <path d="M 299 983 L 299 1008 L 310 1008 L 311 1007 L 311 1004 L 312 1003 L 312 999 L 314 996 L 319 996 L 320 997 L 320 1017 L 319 1018 L 319 1021 L 320 1022 L 320 1042 L 319 1043 L 314 1043 L 314 1054 L 346 1054 L 346 1047 L 345 1046 L 345 1043 L 340 1043 L 339 1042 L 339 1023 L 340 1022 L 340 1016 L 339 1015 L 339 996 L 341 995 L 342 996 L 345 996 L 347 998 L 347 1002 L 348 1003 L 348 1007 L 349 1008 L 360 1008 L 360 983 Z" fill="#905010" fill-rule="evenodd"/>
  <path d="M 859 983 L 851 987 L 846 992 L 846 993 L 843 997 L 843 999 L 841 1003 L 841 1006 L 840 1007 L 840 1015 L 839 1016 L 839 1022 L 840 1023 L 840 1030 L 841 1031 L 841 1034 L 847 1046 L 853 1051 L 859 1054 L 863 1054 L 864 1055 L 877 1055 L 878 1054 L 881 1054 L 891 1049 L 894 1046 L 898 1039 L 898 1037 L 900 1033 L 900 1027 L 901 1026 L 901 1011 L 900 1010 L 900 1005 L 899 1004 L 899 1001 L 898 1000 L 898 998 L 896 994 L 893 991 L 893 990 L 888 986 L 884 984 L 882 984 L 881 983 L 877 983 L 876 982 L 864 982 L 863 983 Z M 866 996 L 874 996 L 879 1000 L 881 1004 L 881 1007 L 882 1008 L 882 1013 L 883 1014 L 883 1023 L 882 1024 L 882 1030 L 881 1031 L 880 1036 L 875 1041 L 873 1042 L 868 1042 L 866 1041 L 861 1036 L 860 1032 L 859 1031 L 859 1027 L 858 1026 L 858 1012 L 859 1011 L 859 1006 L 860 1005 L 861 1001 Z" fill="#905010" fill-rule="evenodd"/>
  <path d="M 600 982 L 599 983 L 595 983 L 594 984 L 592 984 L 588 986 L 586 988 L 585 988 L 581 993 L 578 999 L 577 1005 L 576 1006 L 576 1014 L 575 1015 L 575 1023 L 576 1024 L 576 1030 L 577 1031 L 577 1034 L 578 1035 L 578 1037 L 579 1038 L 579 1040 L 581 1044 L 588 1051 L 592 1053 L 594 1053 L 595 1054 L 598 1054 L 599 1055 L 612 1055 L 613 1054 L 617 1054 L 618 1053 L 620 1053 L 624 1051 L 631 1044 L 634 1038 L 634 1036 L 636 1032 L 636 1026 L 637 1025 L 637 1012 L 636 1011 L 636 1005 L 635 1004 L 635 1001 L 631 993 L 622 985 L 618 984 L 617 983 L 614 983 L 613 982 Z M 602 996 L 610 996 L 615 1001 L 617 1005 L 617 1009 L 618 1010 L 618 1027 L 617 1028 L 617 1032 L 614 1038 L 612 1040 L 608 1042 L 604 1042 L 600 1040 L 598 1038 L 596 1034 L 596 1032 L 595 1031 L 595 1027 L 594 1026 L 594 1011 L 595 1010 L 595 1006 L 596 1005 L 597 1001 Z" fill="#905010" fill-rule="evenodd"/>
  <path d="M 519 983 L 518 984 L 514 985 L 511 988 L 510 988 L 510 989 L 506 993 L 504 997 L 503 1002 L 502 1003 L 502 1009 L 501 1010 L 501 1027 L 502 1028 L 502 1033 L 503 1034 L 503 1037 L 507 1045 L 513 1051 L 519 1054 L 523 1054 L 524 1055 L 536 1055 L 537 1054 L 541 1054 L 542 1053 L 544 1053 L 550 1050 L 555 1045 L 555 1040 L 556 1039 L 556 1029 L 543 1029 L 542 1030 L 541 1036 L 538 1040 L 534 1041 L 533 1042 L 527 1041 L 523 1037 L 522 1033 L 521 1032 L 521 1028 L 520 1027 L 520 1010 L 521 1009 L 521 1006 L 522 1005 L 523 1001 L 528 996 L 536 996 L 538 997 L 540 999 L 542 1003 L 542 1007 L 543 1008 L 556 1008 L 556 983 L 545 983 L 543 986 L 542 986 L 538 983 L 535 983 L 534 982 L 523 982 L 522 983 Z" fill="#905010" fill-rule="evenodd"/>
  <path d="M 975 907 L 971 906 L 970 907 L 966 908 L 957 918 L 957 919 L 949 927 L 949 928 L 940 937 L 939 939 L 939 945 L 942 949 L 944 950 L 950 950 L 952 949 L 978 920 L 979 918 L 979 912 Z" fill="#905010" fill-rule="evenodd"/>
  <path d="M 285 908 L 282 913 L 282 917 L 286 922 L 286 923 L 300 938 L 300 939 L 310 949 L 312 950 L 318 950 L 320 949 L 322 947 L 322 945 L 323 944 L 323 939 L 322 937 L 310 925 L 310 924 L 303 917 L 303 916 L 294 907 L 289 906 Z" fill="#905010" fill-rule="evenodd"/>
  <path d="M 583 890 L 584 892 L 585 892 L 590 897 L 591 897 L 604 908 L 605 908 L 611 914 L 611 918 L 609 922 L 609 925 L 608 926 L 608 928 L 606 932 L 606 935 L 605 936 L 605 938 L 603 942 L 603 945 L 602 946 L 601 951 L 603 951 L 605 949 L 608 948 L 610 946 L 611 946 L 613 944 L 614 944 L 619 940 L 622 939 L 632 932 L 635 932 L 637 934 L 638 934 L 646 940 L 649 941 L 654 945 L 657 946 L 662 950 L 666 951 L 666 948 L 664 944 L 664 941 L 663 940 L 662 935 L 660 932 L 660 929 L 659 928 L 659 926 L 657 922 L 656 914 L 665 906 L 666 906 L 670 902 L 671 902 L 675 898 L 676 898 L 680 894 L 681 894 L 684 891 L 684 890 L 669 890 L 668 889 L 650 889 L 649 888 L 647 888 L 644 883 L 644 881 L 642 878 L 642 876 L 637 866 L 637 864 L 636 863 L 636 861 L 634 857 L 633 857 L 631 861 L 630 866 L 627 871 L 627 873 L 625 876 L 625 878 L 620 888 L 618 888 L 617 889 L 601 889 L 600 890 Z" fill="#905010" fill-rule="evenodd"/>
  <path d="M 1023 836 L 1021 835 L 1015 836 L 1010 842 L 1006 851 L 1004 853 L 1003 856 L 1001 858 L 1000 861 L 998 863 L 996 868 L 994 870 L 992 874 L 992 879 L 995 883 L 997 884 L 1003 884 L 1008 880 L 1010 875 L 1012 873 L 1013 870 L 1015 868 L 1016 865 L 1018 863 L 1020 858 L 1022 856 L 1024 851 L 1027 847 L 1027 841 Z" fill="#905010" fill-rule="evenodd"/>
  <path d="M 237 837 L 235 839 L 234 845 L 240 857 L 242 859 L 244 864 L 246 866 L 247 869 L 249 871 L 253 879 L 257 883 L 259 884 L 265 884 L 269 880 L 269 878 L 270 877 L 269 875 L 269 872 L 267 870 L 264 864 L 262 862 L 261 859 L 259 857 L 256 850 L 251 843 L 249 838 L 247 836 L 245 836 L 244 835 L 241 835 Z" fill="#905010" fill-rule="evenodd"/>
  <path d="M 904 775 L 902 776 L 898 781 L 898 783 L 897 784 L 898 789 L 903 794 L 911 794 L 916 789 L 916 780 L 914 778 L 914 777 L 910 775 Z" fill="#905010" fill-rule="evenodd"/>
  <path d="M 341 767 L 340 768 L 336 769 L 333 772 L 332 774 L 332 780 L 333 782 L 337 786 L 339 787 L 344 787 L 348 785 L 350 783 L 351 781 L 351 774 L 350 772 L 346 768 L 343 768 Z" fill="#905010" fill-rule="evenodd"/>
  <path d="M 1055 756 L 1048 756 L 1046 758 L 1045 758 L 1043 762 L 1043 765 L 1042 766 L 1042 768 L 1041 769 L 1041 771 L 1040 772 L 1040 774 L 1039 775 L 1039 777 L 1038 778 L 1038 780 L 1037 781 L 1035 789 L 1033 792 L 1033 794 L 1031 798 L 1031 803 L 1035 808 L 1037 808 L 1038 809 L 1043 808 L 1046 805 L 1047 801 L 1049 798 L 1049 796 L 1050 795 L 1050 793 L 1051 792 L 1051 790 L 1052 789 L 1052 787 L 1053 786 L 1053 784 L 1054 783 L 1054 781 L 1055 780 L 1055 778 L 1056 777 L 1056 775 L 1058 771 L 1058 768 L 1059 767 L 1059 761 Z" fill="#905010" fill-rule="evenodd"/>
  <path d="M 206 756 L 202 760 L 201 765 L 202 766 L 203 772 L 204 773 L 204 775 L 205 776 L 205 778 L 206 779 L 206 781 L 207 782 L 207 784 L 208 785 L 208 787 L 209 788 L 211 796 L 213 799 L 214 804 L 218 808 L 220 808 L 221 809 L 226 808 L 230 803 L 230 798 L 229 797 L 228 792 L 226 789 L 226 787 L 225 786 L 225 784 L 224 783 L 224 781 L 223 780 L 223 778 L 222 777 L 222 775 L 221 774 L 221 772 L 220 771 L 220 769 L 218 765 L 218 762 L 217 760 L 213 756 Z" fill="#905010" fill-rule="evenodd"/>
  <path d="M 1069 673 L 1064 674 L 1060 678 L 1060 682 L 1059 683 L 1059 689 L 1058 690 L 1058 696 L 1057 697 L 1057 703 L 1056 704 L 1056 710 L 1055 711 L 1055 716 L 1054 717 L 1054 720 L 1055 721 L 1055 723 L 1058 726 L 1060 726 L 1061 727 L 1067 726 L 1069 724 L 1070 722 L 1070 719 L 1071 718 L 1072 707 L 1073 706 L 1073 700 L 1074 699 L 1074 693 L 1075 692 L 1076 680 L 1075 679 L 1075 677 L 1072 674 L 1070 674 Z" fill="#905010" fill-rule="evenodd"/>
  <path d="M 191 673 L 190 674 L 188 674 L 184 679 L 184 684 L 185 685 L 185 692 L 186 693 L 186 699 L 187 700 L 187 706 L 188 707 L 188 712 L 189 713 L 190 722 L 194 726 L 196 727 L 200 727 L 202 726 L 206 721 L 206 716 L 205 715 L 205 710 L 204 709 L 204 704 L 203 703 L 203 697 L 202 696 L 202 691 L 201 690 L 201 684 L 200 683 L 200 679 L 199 677 L 196 674 Z" fill="#905010" fill-rule="evenodd"/>
  <path d="M 1068 584 L 1067 585 L 1065 585 L 1061 590 L 1061 612 L 1062 613 L 1062 638 L 1066 642 L 1073 642 L 1076 640 L 1078 636 L 1078 605 L 1077 604 L 1077 590 L 1073 585 Z" fill="#905010" fill-rule="evenodd"/>
  <path d="M 191 584 L 185 586 L 182 590 L 182 613 L 181 614 L 181 616 L 182 617 L 182 628 L 181 629 L 181 631 L 182 632 L 182 638 L 186 642 L 188 642 L 189 643 L 195 641 L 198 636 L 198 594 L 199 592 L 198 591 L 198 589 L 194 585 L 192 585 Z" fill="#905010" fill-rule="evenodd"/>
  <path d="M 306 530 L 305 531 L 303 531 L 299 535 L 298 541 L 299 542 L 299 544 L 303 548 L 309 549 L 310 548 L 312 548 L 315 545 L 317 539 L 316 538 L 315 534 L 312 531 Z" fill="#905010" fill-rule="evenodd"/>
  <path d="M 1053 500 L 1048 504 L 1047 506 L 1047 512 L 1048 513 L 1048 516 L 1049 517 L 1049 520 L 1050 521 L 1050 524 L 1051 525 L 1051 528 L 1052 529 L 1052 533 L 1053 534 L 1053 537 L 1054 538 L 1054 542 L 1055 543 L 1056 550 L 1058 552 L 1058 553 L 1062 555 L 1065 555 L 1066 554 L 1068 554 L 1071 551 L 1071 549 L 1072 548 L 1072 544 L 1071 543 L 1070 534 L 1069 533 L 1069 530 L 1068 529 L 1068 525 L 1067 524 L 1067 521 L 1066 520 L 1066 517 L 1065 516 L 1065 513 L 1064 512 L 1063 505 L 1061 503 L 1061 502 L 1057 500 Z" fill="#905010" fill-rule="evenodd"/>
  <path d="M 206 500 L 202 500 L 200 501 L 196 506 L 196 509 L 195 510 L 195 513 L 194 514 L 194 517 L 193 518 L 193 521 L 192 522 L 192 525 L 191 526 L 190 535 L 189 536 L 189 539 L 188 540 L 187 548 L 190 553 L 194 554 L 195 555 L 197 555 L 201 553 L 204 548 L 204 544 L 205 543 L 206 534 L 207 533 L 207 530 L 208 529 L 208 526 L 209 525 L 209 522 L 210 521 L 210 518 L 211 517 L 211 514 L 212 513 L 212 505 L 210 503 L 210 502 Z" fill="#905010" fill-rule="evenodd"/>
  <path d="M 1023 421 L 1020 423 L 1018 427 L 1018 431 L 1019 432 L 1019 434 L 1025 446 L 1025 448 L 1027 451 L 1027 453 L 1029 456 L 1029 458 L 1031 461 L 1031 463 L 1033 466 L 1034 470 L 1039 474 L 1043 474 L 1047 472 L 1047 471 L 1049 469 L 1049 462 L 1048 461 L 1048 459 L 1046 456 L 1046 454 L 1044 451 L 1044 449 L 1042 446 L 1042 444 L 1040 441 L 1040 439 L 1037 434 L 1037 432 L 1034 427 L 1034 425 L 1030 421 Z" fill="#905010" fill-rule="evenodd"/>
  <path d="M 237 421 L 230 421 L 226 425 L 224 429 L 224 431 L 221 436 L 221 438 L 218 443 L 218 445 L 216 448 L 216 450 L 214 453 L 214 455 L 210 463 L 210 468 L 214 473 L 220 474 L 224 472 L 226 469 L 226 467 L 231 457 L 231 455 L 236 445 L 236 443 L 240 436 L 241 430 L 242 429 L 241 425 Z" fill="#905010" fill-rule="evenodd"/>
  <path d="M 979 347 L 975 351 L 975 358 L 988 377 L 989 380 L 996 390 L 997 393 L 1000 395 L 1007 395 L 1011 391 L 1011 389 L 1012 388 L 1011 383 L 1009 381 L 1008 378 L 1006 376 L 1005 373 L 1003 371 L 1002 368 L 998 363 L 997 360 L 995 358 L 991 351 L 987 347 L 985 346 L 981 346 Z" fill="#905010" fill-rule="evenodd"/>
  <path d="M 283 348 L 279 346 L 275 346 L 270 350 L 270 351 L 260 365 L 259 368 L 253 376 L 252 379 L 250 381 L 248 385 L 248 389 L 251 394 L 253 395 L 261 395 L 264 392 L 265 389 L 272 379 L 273 376 L 285 359 L 285 351 Z" fill="#905010" fill-rule="evenodd"/>
  <path d="M 922 284 L 919 288 L 919 294 L 920 296 L 948 325 L 950 325 L 951 326 L 956 325 L 960 321 L 960 319 L 961 318 L 960 316 L 960 313 L 954 307 L 954 306 L 931 283 L 924 283 Z" fill="#905010" fill-rule="evenodd"/>
  <path d="M 337 283 L 330 283 L 328 284 L 301 312 L 300 314 L 300 320 L 304 325 L 306 326 L 310 326 L 314 324 L 314 323 L 330 307 L 330 306 L 332 305 L 332 304 L 339 297 L 340 297 L 341 293 L 342 292 L 342 289 L 341 287 Z" fill="#905010" fill-rule="evenodd"/>
  <path d="M 458 303 L 454 307 L 453 312 L 419 334 L 384 363 L 365 382 L 343 408 L 314 452 L 296 489 L 283 525 L 273 567 L 269 604 L 269 621 L 250 644 L 247 653 L 248 663 L 253 672 L 278 702 L 280 715 L 290 748 L 312 798 L 332 831 L 363 870 L 387 894 L 411 915 L 433 932 L 451 943 L 456 950 L 464 951 L 472 948 L 471 937 L 469 934 L 462 931 L 453 933 L 423 912 L 392 885 L 373 866 L 345 832 L 329 808 L 313 778 L 300 747 L 291 718 L 292 716 L 294 716 L 306 727 L 332 746 L 358 762 L 390 778 L 434 795 L 461 803 L 510 814 L 561 821 L 602 824 L 660 824 L 710 820 L 757 813 L 812 800 L 858 784 L 902 763 L 931 745 L 965 719 L 965 727 L 949 771 L 938 794 L 913 834 L 887 866 L 861 892 L 828 919 L 794 940 L 794 948 L 799 949 L 831 929 L 867 900 L 895 872 L 920 841 L 942 807 L 957 777 L 973 734 L 980 704 L 996 685 L 1010 663 L 1010 649 L 1004 638 L 989 620 L 988 592 L 983 555 L 973 516 L 957 476 L 961 468 L 960 462 L 955 457 L 946 455 L 932 430 L 908 397 L 895 382 L 860 348 L 833 327 L 812 314 L 805 303 L 793 303 L 773 293 L 747 283 L 710 273 L 679 268 L 650 266 L 604 267 L 577 270 L 546 276 L 508 287 L 469 304 L 465 302 Z M 279 601 L 280 600 L 280 588 L 281 587 L 281 580 L 282 579 L 283 567 L 284 566 L 286 552 L 287 551 L 289 540 L 291 536 L 291 533 L 293 529 L 293 526 L 298 511 L 300 508 L 301 503 L 308 488 L 308 486 L 321 460 L 338 432 L 359 404 L 376 385 L 398 364 L 428 340 L 458 321 L 460 322 L 466 322 L 470 319 L 473 313 L 510 297 L 522 293 L 525 293 L 529 291 L 532 291 L 536 289 L 551 286 L 552 285 L 556 285 L 557 284 L 561 284 L 567 282 L 572 282 L 573 281 L 578 281 L 579 280 L 594 279 L 595 278 L 605 278 L 606 277 L 643 276 L 644 277 L 666 277 L 667 278 L 676 278 L 677 279 L 684 279 L 685 280 L 703 282 L 704 283 L 712 284 L 717 286 L 721 286 L 725 288 L 735 290 L 753 296 L 756 298 L 761 299 L 789 312 L 794 320 L 796 321 L 805 321 L 816 329 L 819 330 L 840 345 L 867 368 L 893 395 L 910 416 L 936 456 L 939 462 L 938 468 L 940 473 L 944 477 L 946 477 L 948 479 L 948 481 L 951 486 L 951 488 L 954 493 L 959 508 L 961 511 L 964 520 L 964 523 L 967 530 L 971 549 L 972 550 L 974 565 L 975 566 L 975 571 L 976 572 L 976 578 L 977 579 L 979 608 L 978 609 L 975 608 L 958 595 L 933 582 L 913 576 L 903 575 L 902 574 L 894 574 L 893 573 L 875 573 L 874 574 L 866 574 L 865 575 L 860 575 L 855 577 L 851 577 L 834 583 L 818 592 L 816 586 L 814 569 L 813 568 L 811 554 L 809 549 L 809 545 L 808 544 L 803 521 L 797 503 L 797 500 L 791 482 L 789 479 L 788 474 L 786 471 L 785 466 L 766 426 L 751 402 L 736 383 L 725 371 L 708 358 L 697 354 L 692 354 L 691 353 L 680 353 L 679 354 L 671 355 L 657 362 L 642 373 L 636 376 L 632 376 L 631 377 L 623 376 L 619 374 L 607 364 L 597 358 L 595 358 L 589 355 L 580 354 L 579 353 L 569 353 L 568 354 L 559 355 L 547 361 L 537 369 L 522 385 L 510 400 L 491 430 L 477 458 L 477 460 L 469 478 L 459 508 L 459 511 L 456 518 L 456 521 L 453 529 L 451 541 L 448 550 L 448 554 L 447 555 L 447 559 L 446 560 L 446 564 L 445 565 L 445 569 L 444 570 L 444 574 L 442 580 L 442 585 L 440 591 L 438 591 L 436 589 L 424 583 L 403 576 L 393 575 L 392 574 L 385 574 L 384 573 L 366 573 L 365 574 L 357 574 L 356 575 L 346 576 L 322 584 L 301 595 L 285 606 L 281 610 L 279 609 Z M 557 388 L 558 388 L 565 382 L 567 382 L 568 381 L 579 381 L 580 382 L 585 383 L 587 385 L 592 387 L 594 389 L 595 389 L 600 393 L 603 394 L 605 396 L 615 401 L 617 401 L 621 403 L 638 403 L 639 402 L 645 401 L 655 396 L 657 394 L 660 393 L 671 385 L 677 382 L 679 382 L 680 381 L 692 381 L 699 385 L 703 389 L 702 391 L 699 392 L 696 395 L 695 397 L 695 405 L 698 411 L 699 417 L 700 418 L 700 420 L 701 421 L 701 423 L 703 427 L 703 430 L 705 434 L 705 437 L 707 441 L 707 444 L 708 445 L 708 448 L 709 449 L 709 452 L 710 453 L 710 456 L 711 457 L 711 460 L 712 461 L 712 464 L 713 465 L 713 468 L 714 469 L 714 472 L 715 473 L 716 482 L 717 483 L 717 486 L 718 487 L 718 492 L 719 493 L 719 497 L 720 498 L 720 502 L 721 503 L 721 508 L 722 509 L 723 519 L 724 520 L 724 526 L 725 527 L 725 532 L 726 533 L 726 539 L 727 540 L 727 547 L 728 548 L 729 562 L 730 563 L 730 570 L 731 571 L 731 578 L 732 579 L 732 590 L 731 591 L 724 592 L 720 594 L 717 594 L 716 595 L 713 595 L 712 596 L 709 596 L 708 597 L 704 597 L 703 598 L 699 598 L 698 599 L 694 599 L 693 600 L 688 600 L 687 601 L 681 601 L 680 602 L 672 602 L 671 603 L 663 603 L 662 604 L 645 604 L 644 605 L 616 605 L 615 604 L 598 604 L 597 603 L 586 603 L 585 602 L 578 602 L 577 601 L 566 600 L 565 599 L 556 598 L 555 597 L 552 597 L 551 596 L 548 596 L 547 595 L 544 595 L 543 594 L 536 593 L 532 591 L 529 591 L 526 589 L 526 584 L 527 583 L 527 576 L 528 575 L 528 568 L 529 567 L 529 562 L 530 561 L 530 554 L 531 553 L 531 546 L 532 545 L 532 539 L 533 538 L 533 533 L 534 532 L 534 527 L 535 526 L 535 521 L 536 520 L 536 515 L 537 514 L 537 509 L 538 508 L 538 504 L 539 503 L 539 499 L 540 498 L 541 488 L 542 487 L 542 484 L 543 483 L 544 474 L 545 473 L 545 470 L 546 469 L 546 465 L 547 464 L 547 461 L 548 460 L 549 452 L 551 448 L 551 445 L 552 444 L 553 437 L 554 436 L 555 430 L 556 429 L 556 427 L 557 426 L 557 424 L 558 423 L 558 421 L 560 417 L 561 411 L 564 405 L 564 397 L 560 392 L 556 390 Z M 795 608 L 795 611 L 793 613 L 789 615 L 784 620 L 783 620 L 778 625 L 777 625 L 762 639 L 761 639 L 758 642 L 757 642 L 754 645 L 753 645 L 745 651 L 735 656 L 733 658 L 725 662 L 723 662 L 716 666 L 714 666 L 711 668 L 709 668 L 708 669 L 706 669 L 705 670 L 703 670 L 702 671 L 700 671 L 699 672 L 697 672 L 696 673 L 694 673 L 690 675 L 687 675 L 686 676 L 683 676 L 682 677 L 678 677 L 677 678 L 673 678 L 672 679 L 660 680 L 659 681 L 649 681 L 648 682 L 614 682 L 613 681 L 601 681 L 600 680 L 594 680 L 593 679 L 588 679 L 587 678 L 578 677 L 577 676 L 574 676 L 573 675 L 566 674 L 565 673 L 563 673 L 562 672 L 560 672 L 559 671 L 557 671 L 556 670 L 548 668 L 545 666 L 543 666 L 536 662 L 534 662 L 524 657 L 522 655 L 517 653 L 515 651 L 509 648 L 506 645 L 505 645 L 502 642 L 501 642 L 498 639 L 497 639 L 485 628 L 484 628 L 479 623 L 478 623 L 473 618 L 472 618 L 463 610 L 463 608 L 464 607 L 464 602 L 465 601 L 465 597 L 466 596 L 466 592 L 467 591 L 467 587 L 468 586 L 468 582 L 469 581 L 469 578 L 470 577 L 470 573 L 471 572 L 471 569 L 472 568 L 472 564 L 473 563 L 473 560 L 474 559 L 474 556 L 475 555 L 475 552 L 476 551 L 476 548 L 477 547 L 477 544 L 478 543 L 478 540 L 479 539 L 480 532 L 482 528 L 482 525 L 484 521 L 484 518 L 485 517 L 485 515 L 486 514 L 486 512 L 487 511 L 487 509 L 488 508 L 488 506 L 489 505 L 489 503 L 490 502 L 490 500 L 491 499 L 493 491 L 495 488 L 495 486 L 497 483 L 497 481 L 499 478 L 499 476 L 502 471 L 502 469 L 514 445 L 516 443 L 518 438 L 520 436 L 524 428 L 527 425 L 531 418 L 537 411 L 539 412 L 539 414 L 538 415 L 537 421 L 535 424 L 535 427 L 533 431 L 533 434 L 532 435 L 532 438 L 531 439 L 531 442 L 530 443 L 530 446 L 529 447 L 529 450 L 528 451 L 528 454 L 527 455 L 527 459 L 526 460 L 526 463 L 525 464 L 524 473 L 523 474 L 523 477 L 522 478 L 522 483 L 521 484 L 521 487 L 520 488 L 520 494 L 519 495 L 519 499 L 518 500 L 517 512 L 516 513 L 515 525 L 514 526 L 514 532 L 513 533 L 513 539 L 512 540 L 512 545 L 511 546 L 511 554 L 510 555 L 509 571 L 508 572 L 508 581 L 506 583 L 504 582 L 499 582 L 495 584 L 493 586 L 491 590 L 491 595 L 492 596 L 493 600 L 495 602 L 505 607 L 504 609 L 504 624 L 501 627 L 500 631 L 499 632 L 500 636 L 502 639 L 506 640 L 509 642 L 517 644 L 518 645 L 524 646 L 525 647 L 528 647 L 529 648 L 532 648 L 533 649 L 536 649 L 537 650 L 540 650 L 541 651 L 550 652 L 551 653 L 562 654 L 563 655 L 570 655 L 571 656 L 578 656 L 579 657 L 588 657 L 589 658 L 602 658 L 603 659 L 653 659 L 654 658 L 672 658 L 673 657 L 690 656 L 691 655 L 704 654 L 705 653 L 709 653 L 710 652 L 714 652 L 715 651 L 724 650 L 725 649 L 732 648 L 736 646 L 739 646 L 740 645 L 742 645 L 743 644 L 745 644 L 746 643 L 754 641 L 756 640 L 760 636 L 760 630 L 759 628 L 755 624 L 754 606 L 755 605 L 757 605 L 763 602 L 765 600 L 767 596 L 767 590 L 766 589 L 766 587 L 763 584 L 759 583 L 758 582 L 756 582 L 755 583 L 752 583 L 751 582 L 751 575 L 750 574 L 750 567 L 749 566 L 749 558 L 748 557 L 747 541 L 746 540 L 746 534 L 745 533 L 745 527 L 744 526 L 744 520 L 743 519 L 743 514 L 742 513 L 742 508 L 741 507 L 740 496 L 739 495 L 739 491 L 738 490 L 738 486 L 737 485 L 737 480 L 736 479 L 736 476 L 735 475 L 734 466 L 733 465 L 733 462 L 732 461 L 731 452 L 730 451 L 729 444 L 727 440 L 726 433 L 724 429 L 724 426 L 723 425 L 723 423 L 721 419 L 721 416 L 719 412 L 720 410 L 721 410 L 725 414 L 725 415 L 731 422 L 731 423 L 739 434 L 740 437 L 742 439 L 745 446 L 747 448 L 750 454 L 750 456 L 756 467 L 756 469 L 759 474 L 759 476 L 763 484 L 765 492 L 767 495 L 767 497 L 768 498 L 768 500 L 769 501 L 769 503 L 770 504 L 770 506 L 772 510 L 772 513 L 774 517 L 774 520 L 776 524 L 776 527 L 778 531 L 778 534 L 779 535 L 779 538 L 780 539 L 780 542 L 781 543 L 781 546 L 782 547 L 782 550 L 783 551 L 783 555 L 784 556 L 784 559 L 785 560 L 785 563 L 786 564 L 786 568 L 787 569 L 787 572 L 788 573 L 788 577 L 789 578 L 789 582 L 790 583 L 790 587 L 791 588 L 791 592 L 792 593 L 792 597 L 793 598 L 794 607 Z M 282 655 L 285 652 L 285 651 L 295 641 L 296 641 L 305 633 L 306 633 L 311 629 L 316 627 L 318 625 L 324 622 L 326 622 L 333 618 L 335 618 L 336 617 L 338 617 L 339 616 L 341 616 L 345 614 L 348 614 L 349 613 L 352 613 L 353 612 L 356 612 L 357 611 L 362 611 L 363 610 L 388 610 L 389 611 L 395 611 L 396 612 L 400 612 L 401 613 L 404 613 L 405 614 L 408 614 L 409 615 L 417 617 L 420 619 L 425 620 L 435 625 L 437 627 L 438 633 L 442 637 L 446 639 L 451 639 L 452 638 L 454 638 L 460 643 L 461 643 L 484 663 L 485 663 L 500 675 L 503 676 L 506 679 L 509 680 L 516 685 L 538 696 L 540 696 L 543 698 L 545 698 L 548 700 L 550 700 L 551 701 L 553 701 L 554 702 L 556 702 L 560 704 L 563 704 L 564 705 L 570 706 L 571 707 L 574 707 L 575 708 L 579 708 L 580 709 L 584 709 L 585 710 L 589 710 L 590 711 L 595 711 L 596 712 L 604 712 L 605 713 L 618 713 L 619 714 L 639 714 L 640 713 L 653 713 L 654 712 L 662 712 L 663 711 L 669 711 L 670 710 L 674 710 L 675 709 L 679 709 L 680 708 L 683 708 L 684 707 L 691 706 L 692 705 L 698 704 L 699 703 L 701 703 L 702 702 L 704 702 L 705 701 L 713 699 L 716 697 L 718 697 L 744 684 L 746 682 L 749 681 L 751 679 L 752 679 L 754 677 L 755 677 L 757 675 L 764 671 L 777 660 L 778 660 L 783 655 L 784 655 L 791 648 L 792 648 L 803 638 L 806 638 L 807 639 L 812 639 L 816 637 L 819 634 L 820 632 L 820 628 L 823 625 L 831 621 L 833 621 L 836 619 L 838 619 L 841 617 L 843 617 L 847 615 L 850 615 L 851 614 L 854 614 L 855 613 L 858 613 L 859 612 L 863 612 L 864 611 L 870 611 L 871 610 L 896 610 L 897 611 L 903 611 L 904 612 L 908 612 L 909 613 L 912 613 L 913 614 L 920 615 L 926 618 L 928 618 L 933 621 L 935 621 L 941 624 L 943 626 L 946 627 L 948 629 L 955 633 L 958 636 L 959 636 L 973 649 L 973 650 L 977 654 L 977 657 L 972 664 L 972 665 L 968 669 L 968 670 L 960 678 L 960 679 L 958 680 L 958 681 L 956 682 L 951 687 L 949 686 L 949 668 L 947 664 L 943 662 L 937 662 L 933 664 L 926 670 L 925 670 L 917 676 L 912 678 L 910 680 L 884 693 L 882 693 L 870 699 L 868 699 L 865 701 L 860 702 L 857 704 L 855 704 L 854 705 L 846 707 L 843 709 L 840 709 L 839 710 L 837 710 L 836 711 L 834 711 L 830 713 L 827 713 L 826 714 L 820 715 L 816 717 L 813 717 L 812 718 L 809 718 L 808 719 L 805 719 L 804 720 L 801 720 L 797 722 L 793 722 L 792 723 L 789 723 L 788 724 L 785 724 L 784 725 L 780 725 L 779 726 L 775 726 L 774 727 L 770 727 L 769 728 L 764 728 L 763 729 L 759 729 L 758 730 L 754 730 L 753 731 L 742 732 L 741 733 L 735 733 L 734 734 L 728 734 L 727 735 L 720 735 L 719 736 L 712 736 L 711 737 L 703 737 L 702 738 L 693 738 L 692 739 L 681 739 L 680 740 L 666 740 L 665 741 L 596 741 L 595 740 L 579 740 L 578 739 L 568 739 L 567 738 L 548 737 L 547 736 L 540 736 L 539 735 L 533 735 L 532 734 L 519 733 L 518 732 L 513 732 L 512 731 L 508 731 L 507 730 L 503 730 L 502 729 L 497 729 L 496 728 L 493 728 L 492 727 L 483 726 L 482 725 L 479 725 L 478 724 L 475 724 L 474 723 L 470 723 L 469 722 L 466 722 L 465 721 L 462 721 L 461 720 L 458 720 L 457 719 L 454 719 L 453 718 L 446 717 L 442 715 L 439 715 L 438 714 L 436 714 L 432 712 L 429 712 L 428 711 L 426 711 L 425 710 L 423 710 L 422 709 L 420 709 L 419 708 L 417 708 L 416 707 L 408 705 L 405 703 L 397 701 L 394 699 L 392 699 L 389 697 L 387 697 L 384 695 L 382 695 L 379 693 L 377 693 L 374 691 L 372 691 L 346 678 L 344 676 L 341 675 L 336 671 L 333 670 L 327 665 L 326 665 L 322 662 L 315 662 L 310 666 L 310 668 L 309 669 L 309 684 L 307 685 L 289 667 L 289 666 L 283 659 Z M 522 623 L 523 622 L 523 615 L 524 614 L 527 614 L 528 615 L 531 615 L 532 616 L 534 616 L 538 618 L 541 618 L 542 619 L 545 619 L 546 620 L 550 620 L 551 621 L 555 621 L 556 622 L 560 622 L 561 623 L 565 623 L 566 624 L 572 624 L 573 625 L 579 625 L 580 626 L 588 626 L 589 627 L 600 627 L 601 628 L 656 628 L 657 627 L 669 627 L 670 626 L 678 626 L 679 625 L 693 624 L 694 623 L 698 623 L 699 622 L 708 621 L 709 620 L 712 620 L 713 619 L 720 618 L 721 617 L 723 617 L 727 615 L 734 614 L 736 618 L 736 630 L 735 631 L 732 631 L 731 632 L 725 633 L 724 634 L 721 634 L 720 635 L 716 635 L 715 636 L 711 636 L 710 637 L 706 637 L 705 638 L 700 638 L 699 639 L 693 639 L 692 640 L 686 640 L 685 641 L 678 641 L 677 642 L 668 642 L 667 643 L 645 643 L 644 644 L 614 644 L 613 643 L 595 643 L 594 642 L 584 642 L 583 641 L 575 641 L 574 640 L 561 639 L 560 638 L 556 638 L 555 637 L 550 637 L 549 636 L 546 636 L 545 635 L 541 635 L 540 634 L 537 634 L 533 632 L 530 632 L 529 631 L 523 630 L 522 629 Z M 325 692 L 326 691 L 328 691 L 332 693 L 334 695 L 343 699 L 345 701 L 347 701 L 366 711 L 368 711 L 375 715 L 377 715 L 380 717 L 382 717 L 385 719 L 387 719 L 395 723 L 400 724 L 403 726 L 408 727 L 411 729 L 413 729 L 414 730 L 416 730 L 417 731 L 419 731 L 423 733 L 426 733 L 427 734 L 429 734 L 430 735 L 432 735 L 436 737 L 439 737 L 443 739 L 446 739 L 450 741 L 453 741 L 454 742 L 457 742 L 458 743 L 461 743 L 462 744 L 465 744 L 469 746 L 473 746 L 474 747 L 477 747 L 478 748 L 482 748 L 483 749 L 487 749 L 488 750 L 492 750 L 493 751 L 497 751 L 498 752 L 502 752 L 503 753 L 508 753 L 509 754 L 520 755 L 521 756 L 527 756 L 528 757 L 534 757 L 535 758 L 543 758 L 544 759 L 552 759 L 553 760 L 562 760 L 563 761 L 576 761 L 577 762 L 593 762 L 594 763 L 670 763 L 671 762 L 686 762 L 687 761 L 698 761 L 699 760 L 708 760 L 709 759 L 717 759 L 718 758 L 733 757 L 734 756 L 740 756 L 741 755 L 746 755 L 747 754 L 758 753 L 759 752 L 763 752 L 764 751 L 769 751 L 770 750 L 773 750 L 774 749 L 783 748 L 784 747 L 787 747 L 788 746 L 792 746 L 793 745 L 796 745 L 797 744 L 800 744 L 801 743 L 808 742 L 812 740 L 815 740 L 819 738 L 822 738 L 823 737 L 825 737 L 829 735 L 832 735 L 835 733 L 838 733 L 839 732 L 841 732 L 842 731 L 850 729 L 858 725 L 866 723 L 871 720 L 873 720 L 876 718 L 878 718 L 881 716 L 883 716 L 894 710 L 896 710 L 918 699 L 920 697 L 923 696 L 925 694 L 931 691 L 933 692 L 933 698 L 934 700 L 923 709 L 922 709 L 911 717 L 908 718 L 903 722 L 898 724 L 896 726 L 891 728 L 889 730 L 863 743 L 861 743 L 856 746 L 854 746 L 849 749 L 847 749 L 839 753 L 834 754 L 831 756 L 829 756 L 828 757 L 820 759 L 817 761 L 814 761 L 813 762 L 811 762 L 810 763 L 808 763 L 804 765 L 801 765 L 797 767 L 794 767 L 793 768 L 790 768 L 786 770 L 783 770 L 782 771 L 779 771 L 778 772 L 775 772 L 774 773 L 770 773 L 769 774 L 766 774 L 765 775 L 761 775 L 760 776 L 756 776 L 755 777 L 751 777 L 750 778 L 746 778 L 745 779 L 740 779 L 739 780 L 733 780 L 732 781 L 728 781 L 727 782 L 713 783 L 712 784 L 704 784 L 703 785 L 695 785 L 694 786 L 685 786 L 684 787 L 671 787 L 670 788 L 653 788 L 652 789 L 609 789 L 608 788 L 591 788 L 590 787 L 578 787 L 577 786 L 567 786 L 566 785 L 549 784 L 548 783 L 542 783 L 541 782 L 535 782 L 534 781 L 523 780 L 522 779 L 518 779 L 517 778 L 508 777 L 507 776 L 504 776 L 503 775 L 499 775 L 498 774 L 495 774 L 494 773 L 491 773 L 490 772 L 487 772 L 486 771 L 483 771 L 482 770 L 475 769 L 471 767 L 464 766 L 460 764 L 457 764 L 456 763 L 454 763 L 453 762 L 451 762 L 450 761 L 448 761 L 447 760 L 439 758 L 436 756 L 434 756 L 433 755 L 425 753 L 422 751 L 420 751 L 417 749 L 415 749 L 412 747 L 410 747 L 405 744 L 403 744 L 396 740 L 394 740 L 372 729 L 370 727 L 361 723 L 359 721 L 356 720 L 354 718 L 346 714 L 344 712 L 343 712 L 341 710 L 340 710 L 338 708 L 337 708 L 335 706 L 328 702 L 325 699 Z" fill="#905010" fill-rule="evenodd"/>
  <path d="M 853 235 L 852 237 L 852 243 L 856 248 L 859 249 L 861 251 L 862 251 L 864 253 L 871 257 L 874 260 L 881 264 L 884 267 L 888 269 L 892 269 L 897 266 L 898 264 L 898 257 L 895 253 L 891 251 L 888 248 L 887 248 L 885 246 L 881 244 L 878 241 L 877 241 L 875 239 L 869 236 L 862 231 L 858 231 Z" fill="#905010" fill-rule="evenodd"/>
  <path d="M 408 234 L 406 232 L 404 232 L 403 231 L 399 231 L 395 233 L 390 237 L 384 240 L 381 243 L 380 243 L 378 245 L 371 249 L 368 252 L 367 252 L 363 256 L 362 258 L 362 263 L 363 265 L 368 269 L 372 269 L 373 268 L 375 268 L 385 260 L 386 260 L 397 252 L 400 251 L 402 249 L 406 247 L 409 244 L 409 241 L 410 240 Z" fill="#905010" fill-rule="evenodd"/>
  <path d="M 792 178 L 791 179 L 787 179 L 783 181 L 778 186 L 776 190 L 776 193 L 775 194 L 775 203 L 776 204 L 776 207 L 778 211 L 796 228 L 797 230 L 797 235 L 793 239 L 788 239 L 784 237 L 781 234 L 781 231 L 780 230 L 780 226 L 781 224 L 769 221 L 768 227 L 767 228 L 767 232 L 766 233 L 766 236 L 765 237 L 765 240 L 764 241 L 764 244 L 766 245 L 769 245 L 770 246 L 774 246 L 776 245 L 780 249 L 784 250 L 785 251 L 787 251 L 788 252 L 801 252 L 807 249 L 812 242 L 812 240 L 814 237 L 814 225 L 811 219 L 797 205 L 796 205 L 794 203 L 793 201 L 793 195 L 796 192 L 801 192 L 803 193 L 807 197 L 807 199 L 808 200 L 808 205 L 812 206 L 813 207 L 819 208 L 820 206 L 820 203 L 822 199 L 822 196 L 824 192 L 824 188 L 820 187 L 819 186 L 817 186 L 816 185 L 811 186 L 807 182 L 801 179 L 795 179 L 794 178 Z" fill="#905010" fill-rule="evenodd"/>
  <path d="M 497 174 L 495 175 L 492 175 L 491 176 L 488 176 L 487 177 L 484 177 L 483 178 L 480 178 L 479 179 L 476 179 L 475 180 L 472 180 L 468 182 L 465 182 L 464 183 L 458 184 L 457 185 L 455 185 L 454 186 L 452 186 L 448 188 L 442 189 L 443 197 L 444 198 L 444 200 L 445 201 L 445 203 L 446 204 L 448 212 L 451 212 L 452 211 L 458 210 L 459 209 L 458 207 L 458 199 L 462 196 L 464 197 L 465 203 L 467 207 L 467 210 L 469 214 L 469 218 L 470 219 L 470 221 L 471 222 L 471 224 L 472 225 L 472 227 L 474 231 L 474 234 L 476 238 L 475 240 L 472 241 L 472 246 L 473 247 L 474 252 L 478 252 L 482 250 L 485 250 L 486 249 L 489 249 L 490 248 L 493 248 L 494 247 L 497 247 L 498 246 L 502 245 L 502 242 L 500 238 L 500 234 L 496 234 L 494 235 L 492 233 L 492 230 L 491 229 L 491 226 L 490 225 L 490 222 L 489 221 L 489 214 L 487 212 L 487 210 L 485 206 L 485 201 L 484 200 L 484 198 L 482 194 L 482 192 L 484 190 L 487 190 L 489 192 L 492 200 L 494 200 L 495 199 L 499 199 L 500 198 L 503 198 L 503 195 L 501 191 L 501 188 L 500 187 L 500 184 L 499 183 L 499 180 L 498 179 L 498 176 Z" fill="#905010" fill-rule="evenodd"/>
  <path d="M 703 165 L 702 171 L 701 172 L 701 176 L 702 177 L 704 177 L 705 178 L 705 180 L 704 181 L 702 189 L 700 192 L 700 194 L 698 197 L 698 199 L 696 203 L 696 206 L 694 209 L 694 211 L 691 217 L 691 219 L 689 221 L 686 221 L 685 222 L 685 230 L 684 232 L 686 233 L 708 234 L 708 226 L 709 224 L 708 223 L 705 223 L 704 222 L 704 220 L 705 219 L 705 217 L 707 215 L 711 215 L 712 216 L 719 216 L 723 218 L 724 224 L 723 225 L 719 225 L 718 227 L 718 233 L 717 234 L 718 236 L 723 236 L 724 237 L 731 237 L 732 238 L 744 239 L 745 238 L 746 228 L 743 228 L 742 227 L 742 224 L 741 223 L 741 217 L 740 216 L 740 205 L 738 202 L 738 198 L 737 197 L 737 191 L 736 190 L 736 185 L 735 184 L 735 181 L 736 180 L 740 180 L 740 176 L 741 175 L 741 169 L 739 168 L 733 168 L 732 167 L 717 166 L 716 165 Z M 717 183 L 719 184 L 720 196 L 721 197 L 721 205 L 720 206 L 715 206 L 714 205 L 711 205 L 710 204 L 710 202 L 711 201 L 711 199 L 712 198 L 712 196 L 713 195 L 713 193 L 714 192 L 714 190 L 715 189 L 715 187 Z" fill="#905010" fill-rule="evenodd"/>
  <path d="M 581 163 L 570 163 L 569 164 L 550 165 L 549 166 L 543 166 L 542 167 L 536 167 L 535 168 L 529 168 L 527 169 L 527 175 L 528 176 L 528 180 L 529 181 L 533 180 L 534 181 L 534 186 L 535 187 L 535 194 L 536 195 L 535 205 L 537 207 L 538 215 L 539 216 L 539 221 L 540 222 L 540 225 L 538 227 L 536 227 L 536 234 L 537 235 L 537 238 L 543 238 L 544 237 L 550 237 L 551 236 L 558 236 L 559 235 L 566 235 L 567 234 L 577 234 L 578 233 L 586 233 L 588 232 L 588 222 L 587 221 L 587 212 L 586 211 L 583 211 L 582 212 L 574 212 L 573 213 L 573 220 L 571 222 L 565 222 L 564 223 L 558 223 L 557 222 L 557 213 L 556 212 L 556 207 L 557 206 L 566 206 L 567 205 L 573 205 L 573 200 L 572 199 L 572 193 L 563 193 L 562 194 L 555 194 L 554 193 L 554 186 L 553 185 L 553 179 L 554 178 L 559 178 L 560 177 L 566 177 L 568 180 L 569 185 L 578 185 L 579 184 L 582 184 L 582 173 L 581 172 Z" fill="#905010" fill-rule="evenodd"/>
  <path d="M 609 161 L 609 173 L 613 173 L 615 175 L 620 186 L 627 195 L 626 199 L 623 202 L 616 216 L 612 220 L 609 220 L 609 231 L 633 231 L 633 220 L 631 220 L 629 218 L 629 217 L 632 211 L 635 207 L 637 208 L 642 217 L 642 219 L 641 220 L 639 220 L 639 228 L 640 229 L 640 231 L 667 231 L 668 220 L 665 220 L 661 216 L 657 208 L 655 206 L 653 202 L 650 199 L 648 195 L 651 192 L 651 191 L 659 180 L 660 177 L 664 173 L 667 173 L 668 172 L 668 162 L 667 161 L 643 161 L 643 173 L 645 173 L 646 174 L 646 176 L 642 184 L 640 185 L 637 181 L 634 175 L 635 173 L 637 173 L 637 161 Z" fill="#905010" fill-rule="evenodd"/>
  <path d="M 423 185 L 423 195 L 424 196 L 424 199 L 425 200 L 425 202 L 426 203 L 426 205 L 428 209 L 428 212 L 429 213 L 429 215 L 430 216 L 430 218 L 432 222 L 436 227 L 437 227 L 441 230 L 445 230 L 446 231 L 451 231 L 453 230 L 454 231 L 454 234 L 453 235 L 453 238 L 452 239 L 452 245 L 453 246 L 453 249 L 455 253 L 456 259 L 459 263 L 459 264 L 463 268 L 467 270 L 470 270 L 471 271 L 478 271 L 479 270 L 482 270 L 483 269 L 490 268 L 494 266 L 497 266 L 501 264 L 504 264 L 505 263 L 510 262 L 514 260 L 519 255 L 519 253 L 521 250 L 522 250 L 528 255 L 530 255 L 531 256 L 547 256 L 548 255 L 555 255 L 556 254 L 564 254 L 565 253 L 573 253 L 574 252 L 590 251 L 591 250 L 595 250 L 598 248 L 603 248 L 604 249 L 663 249 L 664 250 L 668 250 L 669 249 L 677 249 L 678 250 L 682 250 L 683 251 L 701 252 L 702 253 L 712 253 L 713 254 L 719 254 L 720 255 L 726 255 L 727 256 L 733 256 L 734 257 L 741 257 L 742 258 L 744 258 L 745 257 L 751 257 L 757 261 L 769 264 L 774 267 L 776 267 L 777 268 L 779 268 L 783 270 L 787 270 L 788 271 L 801 271 L 802 270 L 806 270 L 807 269 L 809 269 L 813 267 L 815 265 L 819 263 L 826 255 L 830 248 L 830 246 L 832 242 L 832 239 L 833 238 L 833 223 L 832 221 L 837 214 L 837 212 L 839 208 L 839 205 L 841 201 L 842 194 L 843 193 L 843 186 L 842 185 L 842 183 L 840 179 L 834 173 L 833 173 L 829 170 L 827 170 L 819 166 L 816 166 L 813 164 L 811 164 L 805 161 L 801 161 L 800 160 L 786 160 L 785 161 L 779 162 L 773 165 L 770 168 L 769 168 L 764 173 L 762 177 L 760 178 L 759 177 L 759 175 L 760 174 L 760 167 L 759 166 L 759 163 L 757 159 L 751 153 L 747 151 L 744 151 L 743 150 L 738 150 L 737 149 L 731 149 L 730 148 L 723 148 L 722 147 L 713 147 L 712 146 L 699 146 L 698 147 L 696 147 L 692 149 L 687 154 L 686 154 L 684 152 L 682 148 L 675 144 L 673 144 L 672 143 L 662 143 L 661 142 L 609 142 L 608 143 L 604 143 L 603 144 L 601 144 L 596 148 L 594 148 L 590 145 L 588 145 L 587 144 L 571 144 L 570 145 L 551 146 L 550 147 L 544 147 L 543 148 L 536 148 L 535 149 L 523 150 L 522 151 L 520 151 L 516 153 L 510 159 L 504 156 L 500 156 L 499 155 L 497 155 L 496 156 L 491 156 L 490 157 L 487 157 L 486 158 L 483 158 L 482 159 L 479 159 L 478 160 L 471 161 L 467 163 L 460 164 L 456 166 L 449 167 L 448 168 L 446 168 L 445 169 L 443 169 L 442 170 L 434 172 L 427 177 Z M 515 165 L 516 163 L 520 159 L 524 157 L 536 156 L 537 155 L 544 155 L 545 154 L 552 154 L 553 153 L 561 153 L 562 152 L 572 152 L 573 151 L 585 151 L 587 152 L 591 156 L 592 158 L 592 162 L 593 163 L 593 170 L 594 171 L 594 181 L 595 182 L 595 185 L 594 186 L 593 190 L 589 194 L 585 195 L 585 200 L 591 200 L 593 201 L 597 205 L 599 209 L 599 212 L 600 212 L 604 209 L 606 209 L 607 206 L 612 199 L 612 195 L 608 190 L 606 185 L 602 182 L 601 182 L 599 180 L 597 176 L 597 160 L 598 159 L 599 155 L 603 151 L 605 150 L 613 150 L 614 149 L 659 149 L 660 150 L 670 150 L 671 151 L 675 152 L 678 155 L 679 159 L 680 160 L 680 175 L 678 179 L 675 182 L 669 185 L 666 191 L 663 194 L 663 196 L 669 204 L 671 209 L 677 212 L 679 212 L 682 210 L 682 208 L 683 207 L 685 199 L 687 196 L 687 194 L 688 193 L 688 191 L 690 187 L 690 182 L 688 178 L 688 175 L 689 174 L 689 170 L 690 169 L 691 161 L 692 159 L 697 154 L 699 153 L 712 153 L 713 154 L 722 154 L 723 155 L 737 156 L 738 157 L 743 157 L 744 158 L 746 158 L 750 161 L 750 162 L 753 166 L 753 182 L 749 189 L 749 193 L 750 194 L 750 199 L 751 200 L 751 203 L 752 204 L 752 212 L 753 213 L 753 219 L 754 219 L 756 221 L 756 222 L 757 222 L 757 219 L 759 215 L 763 211 L 764 211 L 764 208 L 762 204 L 762 194 L 763 193 L 764 187 L 769 178 L 776 171 L 780 169 L 786 168 L 787 167 L 800 167 L 801 168 L 807 169 L 814 173 L 818 173 L 819 174 L 821 174 L 831 179 L 835 183 L 837 190 L 836 191 L 836 194 L 834 198 L 834 201 L 833 202 L 833 204 L 831 208 L 831 211 L 830 213 L 825 218 L 824 218 L 825 222 L 826 223 L 826 227 L 827 228 L 827 233 L 826 234 L 826 238 L 825 239 L 824 244 L 819 253 L 814 258 L 807 262 L 805 262 L 801 264 L 788 264 L 787 263 L 784 263 L 783 262 L 778 261 L 773 258 L 770 258 L 769 257 L 766 257 L 765 256 L 760 255 L 756 252 L 755 252 L 753 248 L 747 251 L 742 251 L 741 250 L 734 250 L 733 249 L 727 249 L 726 248 L 719 248 L 718 247 L 713 247 L 712 246 L 701 246 L 700 245 L 682 244 L 676 241 L 673 241 L 669 243 L 639 243 L 638 242 L 631 242 L 630 243 L 608 243 L 607 242 L 604 242 L 602 240 L 601 240 L 600 238 L 599 238 L 597 241 L 591 244 L 583 244 L 582 245 L 574 245 L 573 246 L 565 246 L 564 247 L 556 247 L 555 248 L 548 248 L 547 249 L 540 249 L 539 250 L 535 250 L 534 249 L 530 248 L 526 244 L 525 242 L 525 237 L 524 236 L 524 230 L 523 229 L 523 226 L 524 225 L 524 222 L 526 220 L 526 214 L 525 213 L 524 205 L 523 204 L 523 192 L 517 186 L 516 184 L 516 179 L 515 178 Z M 502 163 L 504 164 L 508 168 L 509 170 L 509 173 L 511 177 L 511 180 L 512 181 L 512 184 L 513 185 L 514 192 L 516 196 L 514 203 L 510 207 L 506 209 L 500 210 L 500 213 L 501 214 L 501 218 L 502 219 L 502 221 L 508 224 L 511 228 L 512 234 L 513 235 L 513 238 L 514 239 L 514 242 L 515 243 L 514 249 L 513 251 L 509 255 L 507 256 L 501 257 L 500 258 L 497 258 L 496 259 L 493 259 L 492 260 L 486 261 L 485 262 L 482 262 L 478 264 L 471 264 L 467 262 L 463 258 L 463 256 L 462 255 L 462 253 L 460 249 L 460 246 L 459 245 L 459 238 L 461 235 L 461 230 L 459 226 L 459 223 L 458 222 L 456 222 L 455 223 L 452 223 L 451 224 L 445 224 L 441 222 L 438 219 L 436 215 L 436 212 L 435 211 L 435 209 L 433 205 L 433 202 L 432 201 L 432 199 L 430 195 L 430 192 L 429 191 L 430 189 L 430 185 L 436 179 L 438 179 L 441 177 L 447 176 L 448 175 L 450 175 L 451 174 L 453 174 L 457 172 L 464 171 L 468 169 L 471 169 L 472 168 L 475 168 L 476 167 L 479 167 L 480 166 L 483 166 L 484 165 L 487 165 L 488 164 L 492 164 L 493 163 Z" fill="#905010" fill-rule="evenodd"/>
  <path d="M 610 63 L 554 68 L 501 78 L 446 94 L 397 114 L 352 138 L 310 166 L 273 196 L 231 237 L 196 279 L 165 324 L 131 387 L 113 430 L 98 478 L 85 540 L 79 600 L 79 657 L 85 717 L 98 778 L 117 836 L 142 890 L 157 917 L 181 954 L 221 1005 L 264 1049 L 319 1094 L 315 1102 L 315 1115 L 322 1126 L 333 1131 L 342 1131 L 354 1126 L 364 1130 L 379 1131 L 412 1148 L 452 1164 L 522 1184 L 590 1194 L 657 1195 L 708 1190 L 770 1177 L 811 1164 L 839 1153 L 887 1129 L 923 1130 L 929 1128 L 932 1130 L 946 1130 L 954 1125 L 957 1118 L 957 1106 L 964 1100 L 966 1095 L 965 1076 L 993 1052 L 1029 1016 L 1061 978 L 1103 915 L 1131 860 L 1153 802 L 1170 734 L 1178 674 L 1179 600 L 1173 539 L 1163 489 L 1148 438 L 1129 391 L 1098 332 L 1067 285 L 1035 245 L 991 200 L 949 166 L 909 139 L 853 109 L 818 95 L 772 81 L 721 70 L 671 64 Z M 365 175 L 413 149 L 457 131 L 500 118 L 549 108 L 594 103 L 650 102 L 698 106 L 751 116 L 801 131 L 847 150 L 893 175 L 930 200 L 962 226 L 1000 263 L 1033 302 L 1061 342 L 1099 414 L 1118 465 L 1129 505 L 1136 539 L 1142 589 L 1142 671 L 1136 720 L 1129 754 L 1104 831 L 1077 888 L 1043 942 L 1015 977 L 999 993 L 995 972 L 984 964 L 910 964 L 898 970 L 883 964 L 862 963 L 842 970 L 832 979 L 821 970 L 802 964 L 686 965 L 684 963 L 686 954 L 677 920 L 704 897 L 705 882 L 695 873 L 660 871 L 648 844 L 640 837 L 631 836 L 624 839 L 619 845 L 608 871 L 573 873 L 563 881 L 562 894 L 565 899 L 591 920 L 581 954 L 585 966 L 574 973 L 565 966 L 558 964 L 521 963 L 510 966 L 498 973 L 491 981 L 483 1004 L 483 1032 L 491 1055 L 505 1068 L 528 1074 L 551 1070 L 567 1059 L 590 1072 L 617 1073 L 634 1067 L 648 1052 L 655 1067 L 664 1072 L 693 1072 L 697 1070 L 702 1072 L 733 1072 L 741 1068 L 745 1062 L 758 1072 L 805 1072 L 818 1069 L 834 1059 L 843 1067 L 855 1072 L 882 1073 L 901 1065 L 914 1050 L 918 1065 L 925 1071 L 918 1078 L 925 1075 L 953 1075 L 961 1083 L 961 1093 L 955 1100 L 952 1100 L 952 1116 L 946 1124 L 934 1125 L 927 1120 L 922 1124 L 895 1125 L 886 1120 L 876 1125 L 867 1125 L 858 1122 L 850 1115 L 832 1125 L 818 1122 L 776 1137 L 734 1148 L 686 1156 L 644 1159 L 598 1158 L 544 1151 L 493 1139 L 446 1123 L 441 1125 L 428 1123 L 402 1125 L 393 1124 L 387 1120 L 381 1124 L 368 1125 L 354 1118 L 343 1125 L 330 1124 L 321 1116 L 320 1104 L 323 1099 L 330 1096 L 332 1079 L 336 1075 L 351 1075 L 350 1072 L 362 1062 L 374 1072 L 449 1072 L 457 1068 L 462 1057 L 462 1040 L 458 1031 L 449 1024 L 445 1017 L 449 1011 L 459 1004 L 461 999 L 462 981 L 456 968 L 447 964 L 295 964 L 286 968 L 281 976 L 281 1013 L 279 1014 L 227 957 L 194 910 L 168 863 L 148 816 L 133 769 L 121 713 L 116 670 L 115 605 L 121 546 L 130 501 L 146 447 L 165 401 L 186 361 L 215 316 L 254 268 L 292 230 L 323 204 Z M 570 884 L 572 882 L 576 880 L 593 880 L 594 879 L 613 879 L 616 873 L 616 871 L 618 868 L 618 866 L 620 863 L 620 861 L 624 854 L 624 852 L 626 848 L 631 844 L 636 844 L 638 845 L 642 849 L 642 851 L 649 865 L 649 867 L 651 870 L 651 872 L 653 875 L 653 877 L 655 879 L 678 879 L 679 880 L 691 880 L 692 881 L 694 881 L 698 886 L 698 891 L 697 893 L 692 898 L 691 898 L 687 902 L 686 902 L 683 905 L 682 905 L 668 917 L 668 922 L 669 923 L 669 925 L 670 926 L 670 928 L 671 929 L 671 931 L 673 935 L 673 938 L 674 939 L 674 941 L 675 942 L 675 944 L 677 948 L 677 951 L 678 952 L 678 957 L 677 959 L 674 962 L 670 964 L 666 964 L 660 961 L 649 953 L 641 949 L 635 944 L 632 944 L 622 951 L 619 952 L 605 962 L 601 963 L 600 964 L 594 963 L 590 959 L 589 957 L 589 952 L 590 951 L 590 949 L 592 945 L 592 942 L 593 941 L 593 939 L 595 935 L 595 932 L 596 931 L 596 929 L 597 928 L 597 926 L 599 922 L 599 917 L 595 913 L 594 913 L 590 909 L 589 909 L 584 904 L 583 904 L 579 900 L 578 900 L 575 897 L 574 897 L 570 893 L 570 891 L 569 890 L 569 886 Z M 627 961 L 629 958 L 630 958 L 634 955 L 636 955 L 640 957 L 642 959 L 645 960 L 647 962 L 647 964 L 646 965 L 644 965 L 640 967 L 636 971 L 635 971 L 631 968 L 630 968 L 627 965 Z M 489 1028 L 489 1007 L 490 1006 L 491 998 L 492 997 L 493 992 L 496 986 L 506 976 L 512 973 L 514 973 L 515 972 L 518 972 L 519 971 L 524 971 L 525 970 L 532 970 L 533 971 L 539 971 L 540 972 L 542 972 L 543 971 L 556 971 L 557 972 L 560 972 L 562 973 L 567 978 L 567 980 L 568 981 L 568 991 L 569 991 L 571 986 L 580 977 L 581 977 L 583 975 L 587 973 L 589 973 L 590 972 L 593 972 L 594 971 L 601 971 L 602 970 L 612 970 L 613 971 L 618 971 L 619 972 L 627 974 L 629 976 L 632 977 L 638 983 L 639 983 L 641 977 L 646 972 L 648 972 L 649 971 L 683 971 L 684 972 L 689 972 L 690 971 L 711 971 L 712 972 L 717 972 L 718 971 L 749 971 L 753 973 L 757 973 L 761 971 L 799 971 L 800 972 L 805 972 L 806 973 L 813 974 L 817 976 L 820 979 L 821 979 L 826 984 L 829 990 L 830 996 L 831 996 L 831 994 L 836 985 L 843 978 L 852 973 L 858 972 L 859 971 L 866 971 L 867 970 L 882 971 L 883 972 L 891 974 L 895 977 L 896 977 L 902 983 L 903 983 L 904 977 L 908 973 L 912 972 L 913 971 L 947 971 L 948 972 L 951 972 L 952 971 L 980 971 L 981 972 L 984 972 L 986 973 L 989 976 L 990 978 L 990 981 L 991 982 L 991 995 L 990 996 L 990 999 L 985 1004 L 982 1005 L 980 1007 L 975 1017 L 973 1019 L 970 1026 L 968 1028 L 968 1033 L 972 1037 L 973 1041 L 974 1042 L 974 1056 L 973 1057 L 973 1059 L 968 1064 L 964 1066 L 931 1066 L 930 1065 L 927 1065 L 923 1062 L 920 1056 L 920 1044 L 921 1043 L 921 1039 L 922 1037 L 926 1033 L 926 1029 L 921 1022 L 914 1008 L 913 1008 L 914 1010 L 914 1026 L 913 1027 L 913 1033 L 912 1034 L 912 1037 L 911 1038 L 910 1043 L 907 1049 L 905 1051 L 905 1052 L 897 1060 L 896 1060 L 894 1062 L 890 1063 L 887 1065 L 884 1065 L 883 1066 L 878 1066 L 877 1067 L 864 1067 L 863 1066 L 858 1066 L 857 1065 L 854 1065 L 843 1059 L 837 1053 L 833 1045 L 832 1045 L 829 1052 L 821 1060 L 815 1063 L 810 1064 L 809 1065 L 802 1065 L 801 1066 L 762 1066 L 761 1065 L 758 1065 L 754 1062 L 752 1058 L 752 1039 L 753 1037 L 757 1033 L 757 1023 L 756 1022 L 756 1015 L 757 1014 L 757 1005 L 755 1003 L 751 1005 L 750 1007 L 749 1017 L 748 1018 L 748 1021 L 747 1022 L 747 1025 L 746 1026 L 746 1030 L 745 1031 L 745 1034 L 744 1035 L 744 1039 L 743 1040 L 743 1043 L 742 1044 L 742 1049 L 741 1050 L 740 1057 L 738 1061 L 735 1064 L 731 1065 L 730 1066 L 705 1066 L 704 1065 L 702 1065 L 699 1062 L 691 1066 L 667 1066 L 666 1065 L 662 1064 L 658 1060 L 657 1058 L 656 1050 L 655 1049 L 655 1045 L 654 1044 L 654 1040 L 653 1039 L 653 1035 L 652 1034 L 652 1030 L 651 1029 L 651 1025 L 650 1024 L 650 1019 L 649 1019 L 649 1029 L 648 1030 L 647 1038 L 646 1039 L 645 1044 L 643 1048 L 639 1053 L 639 1054 L 631 1061 L 625 1064 L 623 1064 L 619 1066 L 613 1066 L 612 1067 L 598 1067 L 597 1066 L 593 1066 L 592 1065 L 587 1064 L 581 1061 L 572 1052 L 568 1045 L 568 1043 L 567 1043 L 566 1048 L 563 1054 L 556 1060 L 548 1064 L 546 1064 L 542 1066 L 537 1066 L 536 1067 L 523 1067 L 522 1066 L 518 1066 L 517 1065 L 515 1065 L 514 1064 L 512 1064 L 508 1062 L 506 1060 L 505 1060 L 498 1053 L 495 1047 L 493 1045 L 493 1043 L 491 1039 L 491 1036 L 490 1035 L 490 1029 Z M 287 979 L 288 977 L 293 972 L 295 972 L 296 971 L 363 971 L 369 974 L 371 974 L 377 971 L 411 971 L 412 972 L 414 972 L 415 971 L 445 971 L 446 972 L 448 972 L 453 976 L 455 980 L 455 997 L 451 1003 L 450 1003 L 448 1005 L 445 1005 L 440 1013 L 437 1016 L 437 1019 L 439 1021 L 439 1022 L 441 1024 L 445 1031 L 451 1034 L 453 1036 L 455 1040 L 455 1058 L 454 1060 L 449 1065 L 446 1065 L 445 1066 L 377 1066 L 376 1065 L 372 1064 L 369 1061 L 368 1057 L 367 1056 L 367 1042 L 368 1041 L 369 1037 L 372 1034 L 376 1032 L 378 1032 L 379 1029 L 385 1021 L 385 1018 L 379 1010 L 378 1007 L 376 1005 L 373 1005 L 373 1009 L 372 1010 L 372 1012 L 371 1014 L 367 1018 L 365 1019 L 362 1019 L 361 1020 L 352 1020 L 352 1032 L 356 1035 L 357 1039 L 358 1040 L 358 1057 L 357 1058 L 357 1060 L 353 1064 L 349 1066 L 312 1066 L 311 1065 L 309 1065 L 307 1064 L 303 1060 L 303 1058 L 302 1057 L 302 1040 L 303 1039 L 303 1037 L 308 1032 L 308 1020 L 305 1020 L 304 1019 L 295 1019 L 291 1017 L 289 1015 L 287 1011 L 287 1009 L 286 1008 L 286 1006 L 287 1005 Z" fill="#905010" fill-rule="evenodd"/>
</svg>